<?xml version="1.0" standalone="no"?>
<!DOCTYPE svg PUBLIC "-//W3C//DTD SVG 20010904//EN"
 "http://www.w3.org/TR/2001/REC-SVG-20010904/DTD/svg10.dtd">
<svg version="1.0" xmlns="http://www.w3.org/2000/svg"
 width="512.000000pt" height="512.000000pt" viewBox="0 0 512.000000 512.000000"
 preserveAspectRatio="xMidYMid meet">
<metadata>
Created by potrace 1.11, written by Peter Selinger 2001-2013
</metadata>
<g transform="translate(0.000000,512.000000) scale(0.100000,-0.100000)"
fill="#000000" stroke="none">
<path d="M3933 5105 c-28 -8 -87 -32 -130 -55 -111 -57 -187 -74 -298 -66 -49
3 -119 13 -155 22 -89 21 -390 30 -506 15 -263 -35 -479 -103 -736 -233 -501
-252 -923 -681 -1174 -1193 -93 -190 -151 -353 -190 -536 -24 -113 -27 -151
-33 -439 l-6 -315 -47 -61 c-88 -114 -192 -188 -304 -215 -235 -57 -389 -295
-340 -527 38 -182 172 -319 353 -362 118 -27 231 -122 346 -290 87 -129 275
-319 402 -409 322 -227 681 -363 1115 -422 126 -17 515 -18 650 -1 384 49 749
177 1035 363 147 95 178 122 400 339 264 258 391 364 550 458 196 116 283 297
241 500 -29 138 -92 224 -229 308 -180 112 -378 278 -616 517 l-134 135 56
114 c107 216 179 443 213 669 21 146 15 446 -12 554 -26 107 -24 273 4 353 13
35 33 80 46 100 58 94 81 228 56 333 -59 252 -315 409 -557 344z m191 -207
c56 -17 141 -100 155 -153 23 -83 15 -136 -34 -228 -93 -176 -113 -353 -66
-582 44 -211 29 -478 -40 -723 -40 -141 -165 -442 -184 -442 -2 0 -33 18 -67
41 -35 23 -126 72 -203 110 -491 241 -1102 311 -1683 194 -362 -74 -748 -256
-999 -473 l-81 -71 -7 57 c-8 73 10 267 35 394 60 291 210 608 416 880 95 124
327 359 444 450 314 242 661 399 1003 453 140 22 366 20 493 -5 146 -28 246
-34 339 -20 88 13 201 51 255 85 72 45 146 56 224 33z m-1159 -1967 c375 -67
675 -189 936 -382 46 -34 163 -141 259 -237 205 -205 384 -357 530 -452 58
-38 120 -81 138 -96 65 -53 93 -145 72 -233 -18 -74 -57 -122 -147 -176 -173
-104 -355 -256 -580 -481 -83 -84 -180 -176 -215 -205 -242 -202 -607 -362
-968 -423 -241 -41 -563 -45 -790 -11 -568 86 -1058 357 -1309 725 -89 129
-151 201 -220 254 -71 55 -179 110 -246 127 -109 26 -182 93 -205 189 -33 137
44 255 194 299 195 56 322 158 475 381 148 215 351 381 636 520 220 108 464
180 725 215 162 22 559 14 715 -14z"/>
<path d="M2662 4380 c-61 -38 -69 -105 -18 -156 26 -26 42 -34 71 -34 52 0
105 53 105 104 0 79 -91 128 -158 86z"/>
<path d="M3272 4275 c-36 -30 -47 -66 -32 -110 35 -107 200 -78 200 35 0 88
-100 133 -168 75z"/>
<path d="M2894 3896 c-51 -51 -43 -119 18 -156 43 -26 67 -25 109 3 88 59 46
187 -62 187 -22 0 -41 -10 -65 -34z"/>
<path d="M2504 2651 c-79 -48 -57 -170 33 -187 40 -7 88 10 108 40 20 28 19
96 -3 122 -37 47 -88 56 -138 25z"/>
<path d="M2100 2619 c-223 -51 -457 -151 -634 -271 -50 -35 -141 -112 -203
-173 -112 -111 -113 -112 -113 -159 0 -64 39 -106 99 -106 38 0 47 6 143 103
207 207 470 343 788 408 79 16 100 24 123 49 63 69 11 172 -85 169 -18 0 -71
-10 -118 -20z"/>
<path d="M3454 2306 c-23 -23 -34 -43 -34 -62 0 -73 78 -130 141 -104 111 47
80 200 -42 200 -22 0 -41 -10 -65 -34z"/>
<path d="M3085 1937 c-27 -27 -35 -43 -35 -72 0 -29 8 -45 35 -72 32 -32 40
-35 77 -30 59 8 93 45 93 102 0 57 -34 94 -93 102 -37 5 -45 2 -77 -30z"/>
<path d="M3742 1868 c-36 -10 -72 -57 -72 -96 0 -56 46 -101 103 -102 49 0 73
13 92 50 45 87 -27 173 -123 148z"/>
</g>
</svg>
